<svg xmlns="http://www.w3.org/2000/svg" width="84" height="72" viewBox="0 0 84 72">
  <g id="Šípka" transform="translate(84 72) rotate(180)" fill="none">
    <path d="M37.681,7.4a5,5,0,0,1,8.638,0L79.614,64.481A5,5,0,0,1,75.295,72H8.705a5,5,0,0,1-4.319-7.519Z" stroke="none"/>
    <path d="M 42.00000381469727 11.90780639648438 L 10.44623565673828 65.99999237060547 L 73.55377960205078 65.99999237060547 L 42.00000381469727 11.90780639648438 M 42 4.923171997070313 C 43.67709732055664 4.923171997070313 45.35419464111328 5.750053405761719 46.31889724731445 7.40380859375 L 79.61371612548828 64.48064422607422 C 81.55811309814453 67.81392669677734 79.15376281738281 71.99999237060547 75.29481506347656 71.99999237060547 L 8.705177307128906 71.99999237060547 C 4.846229553222656 71.99999237060547 2.441864013671875 67.81392669677734 4.386299133300781 64.48064422607422 L 37.68111419677734 7.40380859375 C 38.64580535888672 5.750053405761719 40.32289886474609 4.923171997070313 42 4.923171997070313 Z" stroke="none" fill="#00a2ff"/>
  </g>
</svg>
