<svg id="Vrstva_1" data-name="Vrstva 1" xmlns="http://www.w3.org/2000/svg" viewBox="0 0 275.07 305.77"><defs><style>.cls-1{fill:#fff;stroke:#fff;stroke-miterlimit:10;stroke-width:10px;}</style></defs><path class="cls-1" d="M51.37,214.83a18.55,18.55,0,0,0,2,1.32C64.05,221.27,71.1,228.26,76.93,238c4.83,8.08,10.82,15.54,16.83,22.83,7.51,9.12,17.82,12.47,29.37,12.42,4,0,8-.09,12-.44s6.26,1.24,6.28,5.19c.07,11.14.13,22.34-.35,33.46-.18,4-.3,5.55-.42,7.79a3.51,3.51,0,0,1-3.18,3.12c-1.4,0-3.21-1.18-3.16-4.27.29-3.76-.2-1.91.52-10.38.62-7.12.44-14.31.79-21.45.24-4.83-1.85-6.43-6.59-6.16-16.47.92-31.2-3.26-42.11-16.41-5.51-6.65-10.23-14-15.2-21A70.79,70.79,0,0,1,67,234.8,23,23,0,0,0,54.57,224c-2.47-1-5-2-7.33-3.2-3.26-1.71-5.91-4.06-5.15-8.24s4.32-5.76,7.82-5.64a54.59,54.59,0,0,1,15.18,2.34,72.85,72.85,0,0,1,32.29,21.88c5.44,6.23,10.65,13.18,19.63,14.57a44.67,44.67,0,0,0,11.38.1c5.65-.59,9.41-3.49,10.58-9.55a31.57,31.57,0,0,1,3.55-8.74c2.63-4.82,2.47-5.4-2.87-6.38-12.2-2.24-24-5.58-34.91-11.74-24.7-14-37.66-35.73-40.93-63.35-2.75-23.3,3.08-44.66,17.13-63.56a9.72,9.72,0,0,0,1.6-9.74c-4.18-12.66-3.68-25.23.91-37.74,1.75-4.77,4.4-6.73,9.76-6.18,15.53,1.6,30.07,5.91,43.29,14.28,4.61,2.92,9,3.21,14.93.78,22.56-9.25,47.81-8.38,70.64.19,5.57,2.09,9.35,1.62,13.46-1.48,12.13-9.15,26-14.07,41-15.91,4.61-.57,7.19,1.29,8.85,5.41a60,60,0,0,1,2.51,38.23c-1.29,5-.45,8.8,2.38,13,15.32,22.91,20.39,48.12,14.18,74.91-7.55,32.6-28.68,52.11-61.09,59.61-5.19,1.2-10.48,2-15.75,2.83-3.91.65-4.86,2.63-2.68,5.88,14.5,21.53,12.94,45.94,12.44,70.11,0,1.65-1.07,5-3.12,4.88-2.59.08-3.29-3.38-3.36-5.14-.37-9-.14-18-.25-26.93a72.36,72.36,0,0,0-10.1-37.05c-5.3-8.86-1.51-17.21,8.7-18.81,11.92-1.86,23.63-4.31,34.35-10.15,21.5-11.7,32.5-30.57,35.83-54.12,3.48-24.63-3-46.93-17.88-66.73-2.75-3.65-2.38-7-1-10.76,4.09-10.9,3.79-21.81.28-32.84-1.46-4.57-4-5.9-8.59-5.06a78.4,78.4,0,0,0-36,16.37c-3.39,2.74-6.47,3.08-10.69,1.71-25.3-8.2-52.57-9-77.61-.08-4.84,1.73-8.43,1.28-12.32-1.42A84.68,84.68,0,0,0,96.16,36c-4.3-.49-6.42.84-7.62,5a49.51,49.51,0,0,0,1.22,31.9c1.68,4.44,1,7.8-1.88,11.48-25.12,31.94-24.11,75.68,2.84,106.1,9.51,10.74,22.17,17,35.93,20.71,6.26,1.71,12.67,2.87,19,4.25,7.74,1.69,9,5.37,4.94,12.18a47.51,47.51,0,0,0-5.67,13.12c-1.24,5.22-4.23,8.07-8.83,9.9-14.33,5.71-29.38,1.8-39.3-10.1-8.19-9.83-17.27-18.65-29.49-23.29-5-1.89-10.28-2.95-15.44-4.39A1,1,0,0,0,51.37,214.83Z" transform="translate(-36.96 -21.61)"/></svg>