<svg id="Vrstva_1" data-name="Vrstva 1" xmlns="http://www.w3.org/2000/svg" xmlns:xlink="http://www.w3.org/1999/xlink" viewBox="0 0 3464.95 2590.68"><defs><style>.cls-1{fill:none;}.cls-2{clip-path:url(#clip-path);}.cls-3{fill:#fff;}</style><clipPath id="clip-path" transform="translate(174.96 1118.51)"><polygon class="cls-1" points="273.35 773.03 496.95 773.03 543.56 751.13 712.09 483.7 721.58 247.92 686.77 148.23 636.13 47.29 346.55 26.38 120.26 47.29 44.31 156.14 0 410.91 0 532.76 79.12 649.86 156.66 717.9 237.36 759.04 273.35 773.03"/></clipPath></defs><g class="cls-2"><path class="cls-3" d="M383-131.31h4c2.95.34,5.9.81,8.87,1,13.61.83,27.29,1,40.83,2.47A459.44,459.44,0,0,1,610.23-72.69,475.36,475.36,0,0,1,743.64,36.36a486.68,486.68,0,0,1,88.22,152.11,495.66,495.66,0,0,1,26.22,228.09q-14.16,121.29-83,222.36a481.76,481.76,0,0,1-98.1,105.74,468.23,468.23,0,0,1-157.77,82.87C457.58,846.13,394.77,851.29,331,844a457.48,457.48,0,0,1-179.33-59.49A478,478,0,0,1,16,667.46,494.35,494.35,0,0,1-91.34,367.29,550,550,0,0,1-88.4,304,482.24,482.24,0,0,1-26.57,111.94,488.31,488.31,0,0,1,64.69-3.57,470.07,470.07,0,0,1,167.21-76.74c65.52-34.37,135.19-53,209.41-53.62A43.88,43.88,0,0,0,383-131.31Zm84.33,693.94c4.7,6.17,8.89,10.91,12.24,16.19,12.13,19.13,17,40.5,17.18,62.8.39,43.62.08,87.24.13,130.87a47.52,47.52,0,0,0,.89,10.4c1.9,8.22,7.24,14,15.43,15.14,6.22.89,13.38,1,19.06-1.26,19.92-7.91,39.88-16,58.94-25.78,61.52-31.51,112.23-76,153.55-131.24a459,459,0,0,0,71.38-140.46,472.49,472.49,0,0,0,19.2-186,466.09,466.09,0,0,0-54.64-179.91,458.76,458.76,0,0,0-100-126.16C639.76-29,593.86-57.1,542.67-76.47A443.52,443.52,0,0,0,171.85-50.85,451.86,451.86,0,0,0,50,46.54,459.57,459.57,0,0,0-24.43,160.81c-35,76.86-48.47,157.42-40.87,241.4A466.69,466.69,0,0,0,84.5,704.89a446.57,446.57,0,0,0,110.71,74.34,391.93,391.93,0,0,0,44.38,18c19.21,6.36,34.47-3.94,33.76-24.23-.82-22.95-.2-45.95-.24-68.92,0-7.53-.51-7.88-7.64-6.59-17.4,3.17-34.84,5.19-52.61,3.39-37-3.73-66.44-19.61-85.38-52.34-4.88-8.45-8-17.93-12.15-26.79-10.54-22.26-23.7-42.33-45.21-55.88-5.5-3.47-10.34-8.37-14.56-13.39-3.79-4.52-2.21-9.33,3.52-10.85s11.86-2.54,17.62-1.93c17.32,1.84,31.74,10,44.54,21.69,11,10.06,18.65,22.47,26.73,34.69,14.55,22,34.22,36.59,60.86,40.45,20,2.89,39-1,57.76-7.86,5.43-2,8.19-5,9.23-10.89,3.39-19.34,10.32-37.18,24.43-51.54a17.37,17.37,0,0,0,1.83-3.14c-2.35-.52-4.17-1.06-6-1.32-34.81-4.83-68.83-12.35-100.25-28.94-31.87-16.82-56.66-40.78-72.7-73.17C99.47,412,94,361.06,99,308.83c3.44-35.8,18.12-67.25,41.17-94.78,2.22-2.66,3.18-5.24,2-8.67a155.68,155.68,0,0,1-7-63,212.24,212.24,0,0,1,10.49-48.7c1.67-5,4.8-7.76,10-7,11.32,1.65,22.92,2.54,33.81,5.75,27.73,8.2,52.49,22.66,76.19,38.93a13.88,13.88,0,0,0,12.54,2.25c42.32-11.09,85.27-15.85,129.07-13.27,27.38,1.62,54.36,5.36,80.8,12.45,7.53,2,13.05.88,19.34-3.47,22.69-15.68,46.65-29.26,73.27-37,11.06-3.2,22.83-4,34.31-5.62,4-.55,7,1.29,8.43,5.45,13,36.76,16.48,73.92,4.73,111.68-1.34,4.3-.82,7.44,2.11,10.93a174.7,174.7,0,0,1,36.47,70.88c6.07,24.16,6.7,48.63,5.11,73.39-1.67,26.09-5.8,51.62-14.43,76.3q-25.35,72.51-95.81,103.46c-27.25,12-55.95,18.21-85.26,22.22C473.7,561.35,471,562,467.33,562.63Z" transform="translate(174.96 1118.51)"/><path class="cls-3" d="M2810.43,492.16a45.32,45.32,0,0,1-6.38,1c-74.22.63-143.9,19.24-209.41,53.62a469.73,469.73,0,0,0-102.52,73.17,488.06,488.06,0,0,0-91.26,115.5A482.24,482.24,0,0,0,2339,927.5a547.89,547.89,0,0,0-2.94,63.26,494.18,494.18,0,0,0,107.35,300.17A478,478,0,0,0,2579.08,1408a457.48,457.48,0,0,0,179.33,59.49c63.79,7.27,126.6,2.11,188.18-16.5a468.34,468.34,0,0,0,157.78-82.86,482.23,482.23,0,0,0,98.1-105.74q69-101,83-222.37a495.69,495.69,0,0,0-26.22-228.09,486.87,486.87,0,0,0-88.22-152.11,475.53,475.53,0,0,0-133.41-109.05,459.79,459.79,0,0,0-173.53-55.16c-13.54-1.48-27.22-1.64-40.83-2.47-3-.18-5.92-.65-8.88-1H3290v980H2334v-980Z" transform="translate(174.96 1118.51)"/><path class="cls-3" d="M359.73-450.4c3.69-.67,6.36-1.27,9.07-1.64,29.31-4,58-10.26,85.27-22.22q70.44-30.9,95.81-103.46c8.63-24.68,12.75-50.21,14.43-76.3,1.58-24.76,1-49.23-5.11-73.39a174.88,174.88,0,0,0-36.47-70.88c-2.94-3.49-3.45-6.63-2.12-10.93,11.76-37.76,8.31-74.93-4.72-111.68-1.47-4.16-4.46-6-8.43-5.46-11.49,1.6-23.26,2.43-34.31,5.63-26.63,7.72-50.58,21.3-73.27,37-6.29,4.35-11.82,5.49-19.35,3.47-26.43-7.09-53.42-10.84-80.79-12.45-43.8-2.58-86.76,2.18-129.08,13.27a13.9,13.9,0,0,1-12.53-2.25c-23.7-16.28-48.47-30.73-76.19-38.93-10.89-3.22-22.49-4.1-33.81-5.75-5.21-.76-8.33,2-10,7a212.78,212.78,0,0,0-10.5,48.7,155.81,155.81,0,0,0,7,63c1.12,3.44.17,6-2.05,8.68C9.52-771.44-5.15-740-8.59-704.19c-5,52.23.45,103.13,24.08,150.86,16,32.4,40.83,56.36,72.69,73.18,31.42,16.58,65.45,24.11,100.26,28.94,1.86.26,3.69.8,6,1.32a18.49,18.49,0,0,1-1.82,3.14c-14.11,14.35-21,32.2-24.44,51.54-1,5.93-3.79,8.9-9.23,10.89-18.71,6.85-37.78,10.75-57.76,7.85-26.64-3.86-46.31-18.44-60.85-40.44-8.09-12.22-15.74-24.64-26.74-34.69C.84-463.29-13.59-471.46-30.9-473.29c-5.77-.61-12,.43-17.63,1.93S-55.84-465-52-460.51c4.22,5,9.06,9.92,14.57,13.39C-16-433.58-2.82-413.5,7.72-391.24c4.2,8.86,7.27,18.34,12.16,26.79,18.93,32.72,48.43,48.61,85.38,52.34,17.77,1.8,35.2-.22,52.61-3.39,7.13-1.3,7.63-.95,7.64,6.58,0,23-.58,46,.23,68.93.72,20.29-14.55,30.58-33.76,24.23a393.8,393.8,0,0,1-44.38-18A447.07,447.07,0,0,1-23.1-308.13a462.94,462.94,0,0,1-95.18-121.78,461.52,461.52,0,0,1-54.63-180.91c-7.59-84,5.84-164.53,40.88-241.4A459.41,459.41,0,0,1-57.64-966.48a451.71,451.71,0,0,1,121.89-97.39,437.33,437.33,0,0,1,154.29-50.66,439.93,439.93,0,0,1,216.52,25c51.19,19.37,97.09,47.52,138.06,83.69a458.72,458.72,0,0,1,100,126.16,465.75,465.75,0,0,1,54.64,179.91,472.51,472.51,0,0,1-19.2,186,458.4,458.4,0,0,1-71.38,140.45c-41.31,55.22-92,99.74-153.54,131.24-19.06,9.76-39,17.88-59,25.78-5.67,2.25-12.84,2.15-19,1.26-8.19-1.17-13.54-6.91-15.43-15.13a46.36,46.36,0,0,1-.89-10.41c0-43.62.25-87.25-.13-130.87-.2-22.29-5.06-43.66-17.19-62.79C368.62-439.48,364.43-444.22,359.73-450.4Z" transform="translate(174.96 1118.51)"/></g></svg>